<svg width="256" height="256" viewBox="0 0 256 256" fill="none" xmlns="http://www.w3.org/2000/svg">
<circle cx="128" cy="128" r="128" fill="#0A66C2"/>
<rect x="43" y="69" width="170" height="128" rx="16" fill="white"/>
<rect x="43" y="69" width="170" height="128" rx="16" fill="white"/>
<rect x="69" y="63" width="118" height="146" rx="5" fill="#0A66C2"/>
<rect x="77" y="69" width="102" height="128" rx="3" fill="white"/>
<rect x="127.849" y="150.43" width="24.5512" height="24.5512" rx="5" transform="rotate(45 127.849 150.43)" fill="#0A66C2"/>
<rect x="118.84" y="89.708" width="7.59026" height="81.7509" rx="3.79513" transform="rotate(5.08469 118.84 89.708)" fill="#0A66C2"/>
<rect x="120" y="95" width="16" height="72" rx="5" fill="#0A66C2"/>
<rect width="7.59026" height="84.3654" rx="3.79513" transform="matrix(-0.996065 0.0886282 0.0886282 0.996065 136.34 86.3287)" fill="#0A66C2"/>
<rect x="98" y="49" width="60" height="31" rx="10" fill="white"/>
<rect x="112" y="57" width="32" height="10" rx="5" fill="#0A66C2"/>
<rect x="122" y="60" width="13" height="4" rx="2" fill="white"/>
<g clip-path="url(#clip0_0_1)">
<rect x="128" y="68" width="23.3345" height="23.3345" rx="2" transform="rotate(45 128 68)" fill="#0A66C2"/>
<rect x="107" y="64" width="43" height="17" rx="5" fill="white"/>
</g>
<rect x="114" y="82" width="28" height="4" rx="1" fill="#0A66C2"/>
<defs>
<clipPath id="clip0_0_1">
<rect x="128" y="68" width="23.3345" height="23.3345" rx="2" transform="rotate(45 128 68)" fill="white"/>
</clipPath>
</defs>
</svg>
